<svg width="512" height="512" xmlns="http://www.w3.org/2000/svg">
  <!-- Transparent background -->
  <rect width="512" height="512" fill="none"/>

  <!-- Outer vinyl record circle -->
  <circle cx="256" cy="256" r="240" fill="#1a1a1a"/>

  <!-- Grooves effect - concentric circles -->
  <circle cx="256" cy="256" r="230" fill="none" stroke="#2a2a2a" stroke-width="2"/>
  <circle cx="256" cy="256" r="220" fill="none" stroke="#2a2a2a" stroke-width="2"/>
  <circle cx="256" cy="256" r="210" fill="none" stroke="#2a2a2a" stroke-width="2"/>
  <circle cx="256" cy="256" r="200" fill="none" stroke="#2a2a2a" stroke-width="2"/>
  <circle cx="256" cy="256" r="190" fill="none" stroke="#2a2a2a" stroke-width="2"/>
  <circle cx="256" cy="256" r="180" fill="none" stroke="#2a2a2a" stroke-width="2"/>
  <circle cx="256" cy="256" r="170" fill="none" stroke="#2a2a2a" stroke-width="2"/>
  <circle cx="256" cy="256" r="160" fill="none" stroke="#2a2a2a" stroke-width="2"/>
  <circle cx="256" cy="256" r="150" fill="none" stroke="#2a2a2a" stroke-width="2"/>
  <circle cx="256" cy="256" r="140" fill="none" stroke="#2a2a2a" stroke-width="2"/>
  <circle cx="256" cy="256" r="130" fill="none" stroke="#2a2a2a" stroke-width="2"/>

  <!-- Label area -->
  <circle cx="256" cy="256" r="110" fill="#e74c3c"/>

  <!-- Label text area (lighter circle) -->
  <circle cx="256" cy="256" r="95" fill="#c0392b"/>

  <!-- Center hole -->
  <circle cx="256" cy="256" r="20" fill="#0a0a0a"/>

  <!-- Highlight for 3D effect -->
  <circle cx="256" cy="256" r="240" fill="none" stroke="#333" stroke-width="4"/>
  <path d="M 100 100 A 240 240 0 0 1 412 100" fill="none" stroke="#444" stroke-width="3" opacity="0.3"/>
</svg>
